<svg xmlns="http://www.w3.org/2000/svg" viewBox="0 0 676 527" role="img" aria-label="XIMA logo">
  <path d="M 486 490 L 493 491 L 511 490 L 518 485 L 561 399 L 580 435 L 583 445 L 560 445 L 555 447 L 546 464 L 546 468 L 597 468 L 607 486 L 610 489 L 640 490 L 603 422 L 578 370 L 576 369 L 546 369 L 543 371 Z M 302 370 L 302 490 L 328 490 L 330 416 L 374 449 L 417 416 L 419 418 L 419 490 L 445 490 L 445 369 L 436 369 L 426 373 L 375 415 L 373 415 L 338 389 L 318 372 L 311 369 Z M 218 370 L 218 490 L 227 490 L 228 491 L 239 491 L 240 490 L 245 490 L 244 369 Z M 179 370 L 177 369 L 169 370 L 151 369 L 147 371 L 82 439 L 49 471 L 35 486 L 35 490 L 39 491 L 41 490 L 62 491 L 66 490 L 100 457 L 109 450 L 127 467 L 146 488 L 154 491 L 177 491 L 182 490 L 182 488 L 138 443 L 128 431 L 129 427 L 177 376 Z M 35 371 L 39 376 L 61 398 L 67 406 L 77 416 L 79 417 L 85 417 L 87 416 L 99 403 L 98 401 L 93 395 L 71 371 L 69 370 L 64 369 L 58 369 Z M 467 35 L 375 36 L 314 101 L 275 48 L 263 39 L 221 39 L 198 49 L 179 77 L 179 109 L 186 124 L 234 187 L 117 316 L 203 316 L 275 240 L 312 287 L 327 286 L 367 247 L 422 315 L 483 316 L 372 175 L 319 226 L 219 95 L 226 83 L 238 84 L 322 189 Z" fill="#FFFFFF" fill-rule="evenodd"/>
</svg>
